# AST/ASF file generated using VICON BodyLanguage
# -----------------------------------------------
:version 1.10
:name VICON
:units
  mass 1.0
  length 0.1
  angle deg
:documentation
   .ast/.asf automatically generated from VICON data using
   VICON BodyBuilder and BodyLanguage model FULLBODY5.MOD
:root
   order TX TY TZ RZ RY RX
   axis XYZ
   position 0 0 0  
   orientation 0 -0 0 
:bonedata
  begin
     id 1 
     name lhipjoint
     direction 0.969109 -0.218487 0.11442 
     length 0.544217 
     axis 0 -0 0  XYZ
  end
  begin
     id 2 
     name lfemur
     direction 0.173648 -0.984808 0  
     length 1.81499  
     axis 0 -0 10  XYZ
    dof rx ry rz
    limits (-180.0 180.0)
           (-180.0 180.0)
           (-180.0 180.0)
  end
  begin
     id 3 
     name ltibia
     direction 0.173515 -0.984831 0   
     length 1.55296   
     axis 0 -0 10   XYZ
    dof rx ry rz
    limits (-180.0 180.0)
           (-180.0 180.0)
           (-180.0 180.0)
  end
  begin
     id 4 
     name lfoot
     direction 7.36097e-012 -0.333012 0.942922   
     length 0.509062   
     axis -90 -1.73656e-015 10   XYZ
    dof rx ry rz
    limits (-180.0 180.0)
           (-180.0 180.0)
           (-180.0 180.0)
  end
  begin
     id 5 
     name ltoes
     direction 7.7847e-012 -4.42403e-011 1   
     length 0.249732   
     axis -90 -1.73656e-015 10   XYZ
    dof rx ry rz
    limits (-180.0 180.0)
           (-180.0 180.0)
           (-180.0 180.0)
  end
  begin
     id 6 
     name rhipjoint
     direction -0.966745 -0.226554 0.118645   
     length 0.524838  
     axis 0 -0 0  XYZ 
  end
  begin
     id 7 
     name rfemur
     direction -0.173648 -0.984808 0   
     length 1.84625   
     axis 0 -0 -10   XYZ
    dof rx ry rz
    limits (-180.0 180.0)
           (-180.0 180.0)
           (-180.0 180.0)
  end
  begin
     id 8 
     name rtibia
     direction -0.173714 -0.984796 0   
     length 1.577   
     axis 0 -0 -10   XYZ
    dof rx ry rz
    limits (-180.0 180.0)
           (-180.0 180.0)
           (-180.0 180.0)
 end
 begin
     id 9 
     name rfoot
     direction -0.0183819 -0.0406144 0.999006   
     length 0.490111  
     axis -90 1.73656e-015 -10   XYZ
    dof rx ry rz
    limits (-180.0 180.0)
           (-180.0 180.0)
           (-180.0 180.0)
  end
  begin
     id 10 
     name rtoes
     direction -7.79087e-012 -4.42375e-011 1   
     length 0.245053   
     axis -90 1.73656e-015 -10   XYZ
    dof rx ry rz
    limits (-180.0 180.0)
           (-180.0 180.0)
           (-180.0 180.0)
  end
  begin
     id 11 
     name lowerback
     direction -0.0664844 0.980601 0.184393   
     length 0.458979   
     axis 0 -0 0   XYZ
    dof rx ry rz
    limits (-180.0 180.0)
           (-180.0 180.0)
           (-180.0 180.0)
  end
  begin
     id 12 
     name upperback
     direction 0.0135995 0.999573 0.02588   
     length 0.463983   
     axis 0 -0 0   XYZ
    dof rx ry rz
    limits (-180.0 180.0)
           (-180.0 180.0)
           (-180.0 180.0)
  end
  begin
     id 13 
     name thorax
     direction 0.0468402 0.997311 -0.0563691   
     length 0.482746   
     axis 0 -0 0   XYZ
    dof rx ry rz
    limits (-180.0 180.0)
           (-180.0 180.0)
           (-180.0 180.0)
  end
  begin
     id 14 
     name lowerneck
     direction -0.00174311 0.988586 -0.150647   
     length 0.364383   
     axis 0 -0 0   XYZ
    dof rx ry rz
    limits (-180.0 180.0)
           (-180.0 180.0)
           (-180.0 180.0)
  end
  begin
     id 15 
     name upperneck
     direction -0.02653 0.999379 -0.0231908   
     length 0.361006   
     axis 0 -0 0   XYZ
    dof rx ry rz
    limits (-180.0 180.0)
           (-180.0 180.0)
           (-180.0 180.0)
  end
  begin
     id 16
     name head
     direction -0.00819207 0.999941 0.00714285  
     length 0.378714  
     axis 0 -0 0   XYZ
    dof rx ry rz
    limits (-180.0 180.0)
           (-180.0 180.0)
           (-180.0 180.0)
  end
  begin
     id 17 
     name lshoulderjoint
     direction 0.981627 -0.190809 0  
     length 0.612969  
     axis 0 -0 -11   XYZ
    dof rx ry rz
    limits (-180.0 180.0)
           (-180.0 180.0)
           (-180.0 180.0)
  end
  begin
     id 18 
     name lhumerus
     direction 0.48481 -0.87462 -9.72962e-027   
     length 1.19637   
     axis -180 5.14477e-009 -151   XYZ
    dof rx ry rz
    limits (-180.0 180.0)
           (-180.0 180.0)
           (-180.0 180.0)
  end
  begin
     id 19
     name lradius
     direction 0.48481 -0.87462 -2.35761e-026   
     length 0.637735   
     axis -180 5.14477e-009 -151   XYZ
    dof rx ry rz
    limits (-180.0 180.0)
           (-180.0 180.0)
           (-180.0 180.0)
  end
  begin
     id 20
     name lwrist
     direction 0.48481 -0.87462 -5.51856e-026   
     length 0.318868   
     axis -180 5.14477e-009 -151   XYZ
    dof rx ry rz
    limits (-180.0 180.0)
           (-180.0 180.0)
           (-180.0 180.0)
  end
  begin
     id 21 
     name lhand
     direction 0.477747 -0.861928 -0.169816   
     length 0.29526   
     axis -180 5.14477e-009 -151   XYZ
    dof rx ry rz
    limits (-180.0 180.0)
           (-180.0 180.0)
           (-180.0 180.0)
  end
  begin
     id 22 
     name rshoulderjoint
     direction -0.981627 -0.190809 0   
     length 0.572347  
     axis 0 -0 11   XYZ 
    dof rx ry rz
    limits (-180.0 180.0)
           (-180.0 180.0)
           (-180.0 180.0)
  end
  begin
     id 23 
     name rhumerus
     direction -0.48481 -0.87462 1.64836e-026  
     length 1.28846   
     axis 180 5.14477e-009 151   XYZ
    dof rx ry rz
    limits (-180.0 180.0)
           (-180.0 180.0)
           (-180.0 180.0)
  end
  begin
     id 24 
     name rradius
     direction -0.48481 -0.87462 2.86827e-026   
     length 0.62107   
     axis 180 5.14477e-009 151   XYZ
    dof rx ry rz
    limits (-180.0 180.0)
           (-180.0 180.0)
           (-180.0 180.0)
  end
  begin
     id 25 
     name rwrist
     direction -0.48481 -0.87462 5.20942e-026   
     length 0.310535   
     axis 180 5.14477e-009 151   XYZ
    dof rx ry rz
    limits (-180.0 180.0)
           (-180.0 180.0)
           (-180.0 180.0)
  end
  begin
     id 26
     name rhand
     direction -0.477664 -0.861515 -0.172133   
     length 0.291321   
     axis 180 5.14477e-009 151   XYZ
    dof rx ry rz
    limits (-180.0 180.0)
           (-180.0 180.0)
           (-180.0 180.0)
  end
:hierarchy
  begin
    root lhipjoint rhipjoint lowerback 
    lhipjoint lfemur
    lfemur ltibia
    ltibia lfoot
    lfoot ltoes
    rhipjoint rfemur
    rfemur rtibia
    rtibia rfoot
    rfoot rtoes
    lowerback upperback
    upperback thorax
    thorax lowerneck lshoulderjoint rshoulderjoint
    lowerneck upperneck
    upperneck head
    lshoulderjoint lhumerus
    lhumerus lradius
    lradius lwrist
    lwrist lhand
    rshoulderjoint rhumerus
    rhumerus rradius
    rradius rwrist
    rwrist rhand
  end

:FULLY-SPECIFIED
:DEGREES
2135
root 6.90012 3.69324 -0.222432 244.315 72.2248 114.806
lowerback -19.6265 0.453049 -4.83057
upperback -5.81835 1.874 1.20941
thorax 4.48516 1.10653 4.48894
lowerneck 16.6627 -5.5626 0.0698848
upperneck 5.75655 -6.888 -2.38444
head -1.03361 -3.18011 -0.368385
rshoulderjoint -2.61543 7.6966 -29.8333
rhumerus 355.186 -11.935 -408.654
rradius 24.8573 -1.74931e-014 -1.1609e-013
rwrist 9.22321e-013 10.6418 -3.62456e-013
rhand 9.42282 -8.78905 34.7432
lshoulderjoint -2.19474 -6.17901 30.5986
lhumerus 350.348 17.4857 412.867
lradius 15.2372 -3.49861e-014 8.0309e-014
lwrist 7.44116e-013 -10.5542 2.99264e-013
lhand 11.6511 9.26803 -30.7621
rfemur -16.9233 8.03753 13.4228
rtibia -1.35298e-014 1.27222e-014 -7.95139e-016
rfoot -190.843 -52.2646 180.516
rtoes -1.05356e-014 -2.85231e-013 1.19271e-014
lfemur -35.0987 -4.46349 -12.0503
ltibia 56.0309 -8.74653e-015 1.98785e-016
lfoot -8.67258 9.51262 12.2146
ltoes -3.14875e-013 3.18055e-015 9.22361e-014
2136
root 6.93053 3.6957 -0.222471 245.676 72.2754 113.564
lowerback -19.6439 0.576942 -4.86311
upperback -5.79057 2.04594 1.12098
thorax 4.50753 1.1879 4.45197
lowerneck 16.3448 -5.54191 0.118922
upperneck 5.76653 -6.8632 -2.38043
head -0.978742 -3.17417 -0.385004
rshoulderjoint -2.5487 7.48821 -29.858
rhumerus 355.699 -11.2262 -408.759
rradius 25.4763 2.70347e-014 4.92986e-014
rwrist -2.10173e-013 10.3767 1.16e-013
rhand 8.99109 -8.57189 34.92
lshoulderjoint -2.18395 -6.11961 30.6836
lhumerus 350.129 17.7669 412.681
lradius 15.2445 6.99722e-014 5.32743e-014
lwrist -2.31301e-013 -10.5252 2.74974e-014
lhand 11.7691 9.13351 -30.5353
rfemur -16.58 8.44472 13.3865
rtibia 1.94809e-014 4.77083e-015 -1.59028e-015
rfoot -190.381 -52.117 180.126
rtoes 1.25234e-014 -1.43895e-013 -3.81667e-014
lfemur -35.6231 -4.65944 -11.9175
ltibia 53.6441 1.19271e-015 6.55989e-015
lfoot -8.7252 10.0116 11.5822
ltoes -1.46306e-013 -3.18055e-015 5.88403e-014
2137
root 6.96079 3.69801 -0.223042 247.76 72.2453 111.961
lowerback -19.7882 0.634158 -5.25237
upperback -5.82875 2.21678 0.957301
thorax 4.51357 1.27317 4.54101
lowerneck 16.3215 -5.4856 0.059764
upperneck 5.64473 -6.8092 -2.33025
head -1.01054 -3.15198 -0.361243
rshoulderjoint -2.58202 7.57384 -29.8878
rhumerus 356.035 -11.0874 -408.843
rradius 26.1149 -4.29375e-014 -3.65764e-014
rwrist 9.55932e-013 9.98791 -1.96999e-013
rhand 8.8792 -7.95979 34.945
lshoulderjoint -2.17085 -6.09723 30.6406
lhumerus 349.828 18.1606 412.418
lradius 15.2578 2.22639e-013 -1.00983e-013
lwrist 9.10456e-013 -10.46 -1.53629e-013
lhand 11.8803 8.96152 -30.3483
rfemur -16.3835 8.92557 12.9434
rtibia -2.59414e-014 2.38542e-014 2.38542e-015
rfoot -189.814 -51.9857 179.495
rtoes -5.38706e-014 -4.20802e-014 1.20861e-013
lfemur -36.1169 -4.86057 -12.1301
ltibia 51.0173 -1.15295e-014 -6.36111e-015
lfoot -8.58635 10.4802 11.2015
ltoes -1.01778e-013 3.81667e-014 1.17681e-013
2138
root 6.9909 3.69906 -0.223711 249.097 72.248 110.761
lowerback -19.8333 0.677814 -5.30784
upperback -5.88293 2.29335 0.897083
thorax 4.47039 1.31488 4.52526
lowerneck 16.4278 -5.43193 0.0608635
upperneck 5.46434 -6.74861 -2.35435
head -1.08903 -3.12145 -0.366719
rshoulderjoint -2.65216 7.78546 -29.8781
rhumerus 356.22 -10.0138 -408.774
rradius 26.77 -5.725e-014 2.06736e-014
rwrist -1.02566e-012 9.55837 2.56011e-013
rhand 8.23844 -8.12047 35.3159
lshoulderjoint -2.17353 -6.1172 30.604
lhumerus 349.437 18.4691 412.158
lradius 15.2571 -3.05333e-013 -3.57812e-014
lwrist -4.22085e-013 -10.4665 1.13203e-014
lhand 11.8963 9.0807 -30.1945
rfemur -16.066 9.30751 12.8849
rtibia -2.16675e-014 0 -9.54166e-015
rfoot -189.337 -51.8397 179.009
rtoes -3.87133e-014 -8.1216e-014 2.22639e-014
lfemur -36.487 -5.14981 -11.979
ltibia 48.2311 6.75868e-015 9.74045e-015
lfoot -8.42706 10.5779 11.048
ltoes 1.01778e-013 -8.18993e-014 -6.83819e-014
2139
root 7.02063 3.69933 -0.224995 250.482 72.225 109.513
lowerback -19.8918 0.780547 -5.29861
upperback -5.9333 2.43812 0.793419
thorax 4.43571 1.38954 4.44174
lowerneck 16.4551 -5.40846 0.0406426
upperneck 5.36408 -6.72788 -2.325
head -1.12496 -3.11315 -0.353022
rshoulderjoint -2.62875 7.74002 -29.8245
rhumerus 356.499 -9.68797 -408.819
rradius 27.4524 1.08139e-013 1.38354e-013
rwrist 3.22352e-014 9.36564 1.37e-013
rhand 7.98679 -7.80578 35.3729
lshoulderjoint -2.20505 -6.20765 30.6001
lhumerus 349.151 18.4567 411.976
lradius 15.2317 2.70347e-013 8.74653e-015
lwrist -1.50351e-013 -10.3682 -1.43884e-013
lhand 11.7974 9.37236 -30.133
rfemur -15.7768 9.69485 12.8115
rtibia 1.51076e-014 1.59028e-015 1.19271e-014
rfoot -188.92 -51.6785 178.587
rtoes 5.81197e-014 2.24714e-013 -3.73715e-014
lfemur -36.7932 -5.46735 -11.8201
ltibia 45.2601 -6.16232e-015 -1.03368e-014
lfoot -8.32691 10.6228 11.0758
ltoes -4.77083e-015 8.0309e-014 -2.38542e-014
2140
root 7.04991 3.69911 -0.226311 251.755 72.1776 108.319
lowerback -19.9596 0.873773 -5.25407
upperback -5.93808 2.55842 0.744283
thorax 4.4571 1.44796 4.39325
lowerneck 16.2863 -5.35029 -0.0918703
upperneck 5.32276 -6.68252 -2.28564
head -1.10331 -3.09805 -0.32508
rshoulderjoint -2.61383 7.6528 -29.9221
rhumerus 356.842 -9.53803 -408.977
rradius 28.1346 -1.1609e-013 -6.36111e-015
rwrist -1.32087e-013 9.16052 1.09939e-013
rhand 7.94578 -7.38404 35.3296
lshoulderjoint -2.19044 -6.18872 30.5348
lhumerus 348.941 19.5507 411.665
lradius 15.2088 -1.97194e-013 -8.74653e-015
lwrist 2.40913e-013 -10.4051 1.26116e-013
lhand 12.2575 8.83135 -29.714
rfemur -15.5039 10.0625 12.7961
rtibia 2.46493e-014 -9.54166e-015 7.95139e-015
rfoot -188.481 -51.5156 178.171
rtoes 6.19439e-014 1.29729e-013 -9.54166e-015
lfemur -37.0222 -5.86345 -11.5561
ltibia 42.1015 -5.56597e-015 2.38542e-015
lfoot -7.96679 10.4319 11.3587
ltoes -2.54444e-014 0 -1.43125e-014
2141
root 7.07939 3.69861 -0.228164 253.076 72.1908 107.158
lowerback -19.9656 0.910741 -5.28089
upperback -6.06207 2.62349 0.649598
thorax 4.32315 1.49062 4.3176
lowerneck 16.7322 -5.30875 -0.0340319
upperneck 5.08141 -6.62209 -2.32085
head -1.26263 -3.05972 -0.334012
rshoulderjoint -2.70706 8.01141 -29.7399
rhumerus 356.792 -9.26927 -408.895
rradius 28.8303 9.54166e-014 -1.17681e-013
rwrist 1.74532e-012 8.99301 -5.72782e-013
rhand 7.72731 -7.33242 35.4434
lshoulderjoint -2.24303 -6.35636 30.483
lhumerus 348.46 19.9047 411.364
lradius 15.1756 2.38542e-013 1.55847e-013
lwrist 8.85292e-013 -10.4256 3.42798e-013
lhand 12.1756 9.20701 -29.5878
rfemur -15.1611 10.4304 12.692
rtibia -3.29983e-014 1.90833e-014 1.11319e-014
rfoot -188.006 -51.331 177.734
rtoes -4.65156e-014 1.72191e-013 4.85035e-014
lfemur -37.0813 -6.33533 -11.3329
ltibia 38.7989 -4.57205e-015 -4.77083e-015
lfoot -7.65872 10.6693 11.93
ltoes 7.15625e-014 5.40694e-014 9.70069e-014
